# xmcd
#
# Track frame offsets: 
#        150
#        25932
#        42009
#        53209
#        71290
#        90425
#        119768
#        139458
#        156445
#        182735
#
# Disc length: 2706 seconds
#
# Revision: 1
# Processed by: cddbd v1.5.2PL0 Copyright (c) Steve Scherf et al.
# Submitted via: ExactAudioCopy v0.99pb4
#
DISCID=890a900a
DTITLE=Oscar Peterson - Jumpin' at the Woodside - Date with Oscar Disc
DTITLE=09
DYEAR=1900
DGENRE=Jazz
TTITLE0=Jumpin' at the Woodside
TTITLE1=Blues for Basie
TTITLE2=Blues and Sentimental
TTITLE3=Lester Leaps in
TTITLE4=Jive at Five
TTITLE5=Easy Does It
TTITLE6=Topsy
TTITLE7=9-20 Special
TTITLE8=One o'Clock Jump
TTITLE9=Broadway
EXTD=
EXTT0=
EXTT1=
EXTT2=
EXTT3=
EXTT4=
EXTT5=
EXTT6=
EXTT7=
EXTT8=
EXTT9=
PLAYORDER=
